<svg xmlns="http://www.w3.org/2000/svg" viewBox="0 0 1026.03 174.02"><defs><style>.cls-1,.cls-2{fill:#0032ff;}.cls-2{fill-rule:evenodd;}</style></defs><title>BuilderCloud_Blue</title><g id="Layer_2" data-name="Layer 2"><g id="All"><g id="BuilderCloud_Blue"><path class="cls-1" d="M833.9,81.91c-10,0-15.77,7.16-15.81,20.39s5.7,20.44,15.69,20.47,15.68-7.15,15.72-20.38S843.79,81.94,833.9,81.91Z"/><path class="cls-1" d="M961.54,82.54h-9.89v39.6h9.89c11.34,0,17-7,17-19.8S972.88,82.54,961.54,82.54Z"/><path class="cls-1" d="M1012.9,32.06H670.16A13.13,13.13,0,0,0,657,45.19V158.93a13.13,13.13,0,0,0,13.13,13.13H1012.9A13.13,13.13,0,0,0,1026,158.93V45.19A13.13,13.13,0,0,0,1012.9,32.06ZM720.25,132.94c-17.63,0-28.61-11.52-28.61-30.6s11.07-30.6,28.44-30.6c12.14,0,21.23,5,24.56,15.39L733.39,91.9c-2-7.2-5.94-10-12.77-10-9.9,0-16.11,7.2-16.11,20.43s5.85,20.43,15.83,20.43c7.11,0,11.79-3.42,13.68-10.53l11.43,3.42C741.85,127.27,732.31,132.94,720.25,132.94Zm79.56-.9H756.08V72.64H768.5v49.41h31.31Zm34,.9c-17.64,0-28.62-11.52-28.62-30.6s11-30.6,28.62-30.6,28.53,11.52,28.53,30.6S851.48,132.94,833.84,132.94Zm90.89-24.3c0,16.2-8.81,24.3-25.37,24.3S874,124.84,874,108.64v-36H886.4V108.1c0,10,4.23,14.67,13,14.67s12.86-4.68,12.86-14.67V72.64h12.51ZM962.17,132H939.23V72.64h22.94c18.63,0,29.25,10.71,29.25,29.7S980.8,132,962.17,132Z"/><g id="UILDER"><path class="cls-1" d="M144.15,68.39a5.74,5.74,0,0,1,5.67-5.67h7.77a5.74,5.74,0,0,1,5.67,5.67v55.44q0,16.17,7.25,24.15t21.1,8q13.24,0,20.79-8T220,123.83V68.39a5.76,5.76,0,0,1,5.67-5.67h7.77a5.72,5.72,0,0,1,5.67,5.67v97.86a5.72,5.72,0,0,1-5.67,5.67h-7.77a5.76,5.76,0,0,1-5.67-5.67v-6.51a40.87,40.87,0,0,1-11.34,9.76Q201.27,174,188.46,174a48.49,48.49,0,0,1-18.06-3.26,39.15,39.15,0,0,1-23.1-23.94A58.13,58.13,0,0,1,144.15,127Z"/><path class="cls-1" d="M281.28,40.46a5.74,5.74,0,0,1-5.67,5.67h-12A5.74,5.74,0,0,1,258,40.46v-12a5.74,5.74,0,0,1,5.67-5.67h12a5.74,5.74,0,0,1,5.67,5.67Zm-2.1,125.79a5.74,5.74,0,0,1-5.67,5.67h-7.77a5.74,5.74,0,0,1-5.67-5.67V68.39a5.74,5.74,0,0,1,5.67-5.67h7.77a5.74,5.74,0,0,1,5.67,5.67Z"/><path class="cls-1" d="M319.29,166.25a5.74,5.74,0,0,1-5.67,5.67h-7.77a5.74,5.74,0,0,1-5.67-5.67V28.49a5.74,5.74,0,0,1,5.67-5.67h7.77a5.74,5.74,0,0,1,5.67,5.67Z"/><path class="cls-1" d="M382.71,60.62q13,0,20.79,4.51a39.34,39.34,0,0,1,11.76,9.77V28.49a5.74,5.74,0,0,1,5.67-5.67h7.77a5.74,5.74,0,0,1,5.67,5.67V166.25a5.74,5.74,0,0,1-5.67,5.67h-7.77a5.74,5.74,0,0,1-5.67-5.67v-6.51a36.69,36.69,0,0,1-12,10Q395.52,174,382.71,174a48.21,48.21,0,0,1-18.37-3.47,42.88,42.88,0,0,1-14.81-10,49.06,49.06,0,0,1-10.08-15.75A63.78,63.78,0,0,1,335,124q-.21-3.15-.21-6.83t.21-6.82a63.78,63.78,0,0,1,4.41-20.79A47.84,47.84,0,0,1,349.53,74a43.62,43.62,0,0,1,14.81-9.87A48.21,48.21,0,0,1,382.71,60.62Zm32.55,65.73q.21-3.15.21-8.3t-.21-8.29q-.63-14.91-8.92-23t-21.53-8.08Q371,78.68,363,87.5t-8.82,23.94q-.21,5.88,0,11.76.84,15.12,8.82,23.94T384.81,156q13,0,21.42-8T415.26,126.35Z"/><path class="cls-1" d="M450.33,106.82A55.36,55.36,0,0,1,455,88.76a51.13,51.13,0,0,1,9.87-14.7,43.37,43.37,0,0,1,14.59-9.87,48.68,48.68,0,0,1,19-3.57,52.8,52.8,0,0,1,20.26,3.67A41.82,41.82,0,0,1,533.91,74.9a47.24,47.24,0,0,1,9.66,16.8,68.14,68.14,0,0,1,3.36,22v5.67a5.74,5.74,0,0,1-5.67,5.67H469v1.26q.42,14.28,8.71,21.94T498.42,156q11.55,0,17.32-3.26a36.34,36.34,0,0,0,9.35-7.24,12.21,12.21,0,0,1,2.94-2.31,8.77,8.77,0,0,1,3.78-.63h6.3a6.17,6.17,0,0,1,4.2,1.68,4.09,4.09,0,0,1,1.47,4,22.31,22.31,0,0,1-3.57,8.29,31.36,31.36,0,0,1-8.51,8.4,51,51,0,0,1-13.86,6.51A64.52,64.52,0,0,1,498.42,174a46.69,46.69,0,0,1-18.9-3.68,45.41,45.41,0,0,1-14.6-10.08,50.28,50.28,0,0,1-10-15.12,59.58,59.58,0,0,1-4.62-19A89.13,89.13,0,0,1,450.33,106.82Zm18.69.63h59v-.63q0-12.81-8.09-20.48t-21.52-7.66a31.66,31.66,0,0,0-11.34,2,28.36,28.36,0,0,0-9.24,5.67,26.46,26.46,0,0,0-6.3,8.93A31,31,0,0,0,469,106.82Z"/><path class="cls-1" d="M617.28,62.72A5.74,5.74,0,0,1,623,68.39v6.72a5.74,5.74,0,0,1-5.67,5.67H605.1Q581,80.78,581,104.93v61.32a5.74,5.74,0,0,1-5.67,5.67h-7.77a5.74,5.74,0,0,1-5.67-5.67V68.39a5.74,5.74,0,0,1,5.67-5.67h7.77A5.74,5.74,0,0,1,581,68.39V74.9A26.23,26.23,0,0,1,591,65.66q5.87-2.94,15.33-2.94Z"/></g><g id="B"><polygon id="B-2" data-name="B" class="cls-2" points="69.23 0 0 0 0 172.04 72.14 172.04 73.45 172.03 74.75 171.99 76.04 171.94 77.32 171.87 78.59 171.77 79.84 171.65 81.08 171.52 82.32 171.36 83.53 171.18 84.74 170.98 85.93 170.76 87.11 170.52 88.28 170.25 89.43 169.97 90.57 169.67 91.69 169.34 92.8 169 93.9 168.63 94.98 168.24 96.04 167.84 97.09 167.41 98.13 166.96 99.15 166.5 100.15 166.01 101.14 165.5 102.1 164.97 103.06 164.42 103.99 163.86 104.91 163.27 105.81 162.66 106.7 162.03 107.56 161.38 108.41 160.72 109.24 160.03 110.05 159.32 110.84 158.59 111.62 157.85 112.37 157.08 113.1 156.3 113.82 155.49 114.51 154.67 115.19 153.82 115.84 152.96 116.47 152.08 117.09 151.17 117.68 150.25 118.25 149.31 118.79 148.35 119.32 147.38 119.83 146.38 120.31 145.36 120.77 144.32 121.2 143.27 121.61 142.2 122 141.11 122.37 140 122.72 138.87 123.03 137.72 123.33 136.55 123.6 135.37 123.84 134.16 124.07 132.94 124.26 131.7 124.43 130.44 124.58 129.16 124.7 127.87 124.79 126.55 124.86 125.22 124.9 123.87 124.91 122.5 124.88 120.81 124.81 119.15 124.69 117.54 124.53 115.97 124.32 114.45 124.06 112.97 123.77 111.53 123.44 110.13 123.07 108.78 122.67 107.46 122.23 106.18 121.75 104.94 121.25 103.74 120.71 102.58 120.15 101.46 119.56 100.37 118.94 99.32 118.3 98.3 117.64 97.32 116.95 96.38 116.25 95.47 115.52 94.59 114.79 93.74 114.03 92.93 113.27 92.15 112.49 91.4 111.7 90.68 110.9 89.99 110.09 89.33 109.28 88.69 108.47 88.09 107.65 87.52 106.83 86.97 106.01 86.45 104.38 85.48 102.77 84.61 101.19 83.84 101.92 83.48 103.44 82.65 105 81.66 106.59 80.53 107.39 79.9 108.19 79.25 108.99 78.55 109.79 77.82 110.58 77.05 111.37 76.25 112.14 75.41 112.91 74.53 113.66 73.63 114.39 72.68 115.1 71.7 115.8 70.69 116.47 69.64 117.12 68.56 117.75 67.44 118.34 66.29 118.9 65.11 119.43 63.89 119.93 62.63 120.38 61.35 120.8 60.03 121.18 58.68 121.52 57.3 121.8 55.88 122.04 54.44 122.23 52.95 122.37 51.44 122.46 49.9 122.49 48.33 122.47 47.07 122.44 45.82 122.38 44.59 122.3 43.38 122.19 42.17 122.06 40.98 121.91 39.81 121.73 38.65 121.53 37.5 121.3 36.37 121.06 35.25 120.79 34.14 120.49 33.05 120.18 31.98 119.84 30.92 119.48 29.88 119.1 28.85 118.69 27.83 118.27 26.84 117.81 25.85 117.34 24.89 116.85 23.94 116.33 23 115.8 22.09 115.24 21.18 114.66 20.3 114.06 19.43 113.43 18.58 112.79 17.75 112.12 16.93 111.43 16.13 110.73 15.35 110 14.58 109.25 13.84 108.48 13.11 107.69 12.4 106.88 11.71 106.04 11.03 105.19 10.38 104.32 9.74 103.43 9.12 102.51 8.52 101.58 7.94 100.63 7.38 99.66 6.84 98.67 6.32 97.65 5.81 96.62 5.33 95.57 4.87 94.5 4.42 93.42 4 92.31 3.6 91.18 3.22 90.04 2.86 88.87 2.52 87.69 2.2 86.49 1.9 85.27 1.62 84.03 1.36 82.78 1.13 81.5 0.92 80.21 0.73 78.9 0.56 77.57 0.41 76.22 0.29 74.86 0.18 73.48 0.1 72.08 0.05 70.67 0.01 69.23 0"/></g></g></g></g></svg>